<svg width="656" height="250" viewBox="0 0 656 250" fill="none" xmlns="http://www.w3.org/2000/svg">
<g clip-path="url(#clip0_1_2)">
<path fill-rule="evenodd" clip-rule="evenodd" d="M511 78H464V250H584C623.764 250 656 217.764 656 178V78H608V145.5C608 172.286 586.286 194 559.5 194C532.714 194 511 172.286 511 145.5V78Z" fill="white"/>
<circle cx="560" cy="145" r="15" fill="white"/>
<path fill-rule="evenodd" clip-rule="evenodd" d="M380 78H232V250H380V78ZM327.5 96C300.714 96 279 117.714 279 144.5V145.5C279 172.286 300.714 194 327.5 194C354.286 194 376 172.286 376 145.5V144.5C376 117.714 354.286 96 327.5 96Z" fill="white"/>
<path d="M380 19.6429C380 8.79441 388.794 0 399.643 0C413.095 0 424 10.9051 424 24.3571V250H380V19.6429Z" fill="white"/>
<circle cx="327" cy="145" r="15" fill="white"/>
<path fill-rule="evenodd" clip-rule="evenodd" d="M72 78C32.2355 78 0 110.236 0 150V250H192V78H72ZM96.5 96C69.7142 96 48 117.714 48 144.5V145.5C48 172.286 69.7142 194 96.5 194C123.286 194 145 172.286 145 145.5V144.5C145 117.714 123.286 96 96.5 96Z" fill="white"/>
<circle cx="96" cy="145" r="15" fill="white"/>
</g>
<defs>
<clipPath id="clip0_1_2">
<rect width="656" height="250" fill="white"/>
</clipPath>
</defs>
</svg>
