<svg width="80" height="80" viewBox="0 0 80 80" fill="none" xmlns="http://www.w3.org/2000/svg">
<g clip-path="url(#clip0_13_27)">
<g clip-path="url(#clip1_13_27)">
<mask id="mask0_13_27" style="mask-type:luminance" maskUnits="userSpaceOnUse" x="0" y="0" width="80" height="80">
<path d="M0 0.0982666H79.9017V80H0V0.0982666Z" fill="white"/>
</mask>
<g mask="url(#mask0_13_27)">
<path d="M78.3968 36.4912L43.5098 1.60687C43.0319 1.12866 42.4645 0.74931 41.8399 0.490488C41.2154 0.231667 40.5459 0.0984497 39.8698 0.0984497C39.1938 0.0984497 38.5243 0.231667 37.8998 0.490488C37.2752 0.74931 36.7077 1.12866 36.2298 1.60687L28.9881 8.85209L38.1759 18.0399C39.2561 17.6731 40.4174 17.6158 41.5284 17.8746C42.6395 18.1334 43.656 18.6979 44.4629 19.5043C45.2743 20.3165 45.8407 21.3407 46.0974 22.4597C46.354 23.5788 46.2905 24.7474 45.9142 25.8321L54.7724 34.6877C55.8574 34.3109 57.0265 34.2474 58.1459 34.5046C59.2652 34.7617 60.2894 35.3291 61.1011 36.1417C61.6697 36.7101 62.1207 37.385 62.4285 38.1278C62.7362 38.8706 62.8946 39.6668 62.8946 40.4708C62.8946 41.2748 62.7362 42.0709 62.4285 42.8137C62.1207 43.5565 61.6697 44.2314 61.1011 44.7999C59.9516 45.9482 58.3933 46.5932 56.7685 46.5932C55.1438 46.5932 53.5854 45.9482 52.4359 44.7999C51.582 43.9446 51.0002 42.8558 50.7638 41.6705C50.5273 40.4853 50.6468 39.2565 51.1072 38.139L42.8464 29.8808V51.6173C43.7183 52.048 44.475 52.6803 45.054 53.4617C45.6329 54.2431 46.0173 55.1512 46.1754 56.1108C46.3335 57.0704 46.2607 58.0538 45.963 58.9796C45.6654 59.9055 45.1514 60.747 44.4637 61.4347C43.8953 62.0033 43.2204 62.4543 42.4776 62.762C41.7348 63.0697 40.9386 63.2281 40.1346 63.2281C39.3306 63.2281 38.5345 63.0697 37.7917 62.762C37.0489 62.4543 36.374 62.0033 35.8055 61.4347C35.2368 60.8662 34.7856 60.1913 34.4778 59.4484C34.1701 58.7055 34.0116 57.9093 34.0116 57.1051C34.0116 56.301 34.1701 55.5048 34.4778 54.7619C34.7856 54.019 35.2368 53.3441 35.8055 52.7756C36.3784 52.2015 37.0593 51.7467 37.809 51.4373V29.5008C37.0624 29.1933 36.3839 28.7413 35.8125 28.1707C35.2411 27.6002 34.7881 26.9224 34.4794 26.1763C34.1707 25.4302 34.0125 24.6304 34.0139 23.823C34.0152 23.0155 34.1761 22.2163 34.4872 21.4712L25.4281 12.4103L1.50461 36.3277C0.540577 37.2937 -0.000854492 38.6026 -0.000854492 39.9673C-0.000854492 41.332 0.540577 42.6409 1.50461 43.6069L36.3933 78.4956C37.3592 79.4593 38.668 80.0006 40.0324 80.0006C41.3969 80.0006 42.7057 79.4593 43.6716 78.4956L78.3968 43.7703C79.3608 42.8044 79.9023 41.4955 79.9023 40.1308C79.9023 38.7661 79.3608 37.4571 78.3968 36.4912Z" fill="#F03C2E"/>
</g>
</g>
</g>
<defs>
<clipPath id="clip0_13_27">
<rect width="80" height="80" fill="white"/>
</clipPath>
<clipPath id="clip1_13_27">
<rect width="80" height="80" fill="white"/>
</clipPath>
</defs>
</svg>
