<svg width="80" height="80" viewBox="0 0 80 80" fill="none" xmlns="http://www.w3.org/2000/svg">
<g clip-path="url(#clip0_6_13)">
<rect width="80" height="80" rx="16" fill="#E4CF0C"/>
<path d="M34.8636 41.9091H42.6477V61.8523C42.6383 63.7462 42.16 65.4129 41.2131 66.8523C40.2756 68.2822 38.9782 69.3996 37.321 70.2045C35.6733 71 33.7746 71.3977 31.625 71.3977C29.7595 71.3977 28.0549 71.0758 26.5114 70.4318C24.9678 69.7784 23.7367 68.7557 22.8182 67.3636C21.8996 65.9621 21.4451 64.1439 21.4545 61.9091H29.3523C29.3807 62.6383 29.5038 63.2538 29.7216 63.7557C29.9489 64.2576 30.2614 64.6364 30.6591 64.892C31.0663 65.1383 31.5587 65.2614 32.1364 65.2614C32.7235 65.2614 33.2159 65.1335 33.6136 64.8778C34.0208 64.6222 34.3286 64.2434 34.5369 63.7415C34.7453 63.2301 34.8542 62.6004 34.8636 61.8523V41.9091ZM62.0724 51C61.9967 50.053 61.6416 49.3144 61.0071 48.7841C60.3821 48.2538 59.4304 47.9886 58.152 47.9886C57.3376 47.9886 56.67 48.0881 56.1491 48.2869C55.6378 48.4763 55.259 48.7367 55.0128 49.0682C54.7666 49.3996 54.6387 49.7784 54.6293 50.2045C54.6103 50.5549 54.6719 50.8722 54.8139 51.1562C54.9654 51.4309 55.2022 51.6818 55.5241 51.9091C55.8461 52.1269 56.258 52.3258 56.7599 52.5057C57.2618 52.6856 57.8584 52.8466 58.5497 52.9886L60.9361 53.5C62.5459 53.8409 63.9238 54.2907 65.0696 54.8494C66.2154 55.4081 67.1529 56.0663 67.8821 56.8239C68.6113 57.572 69.1463 58.4148 69.4872 59.3523C69.8376 60.2898 70.0175 61.3125 70.027 62.4205C70.0175 64.3333 69.5393 65.9527 68.5923 67.2784C67.6454 68.6042 66.2912 69.6127 64.5298 70.304C62.7779 70.9953 60.6709 71.3409 58.2088 71.3409C55.6804 71.3409 53.474 70.9669 51.5895 70.2188C49.7145 69.4706 48.2562 68.3201 47.2145 66.767C46.1823 65.2045 45.6615 63.2064 45.652 60.7727H53.152C53.1993 61.6629 53.4219 62.411 53.8196 63.017C54.2173 63.6231 54.776 64.0824 55.4957 64.3949C56.2249 64.7074 57.0914 64.8636 58.0952 64.8636C58.938 64.8636 59.6435 64.7595 60.2116 64.5511C60.7798 64.3428 61.2107 64.054 61.5043 63.6847C61.7978 63.3153 61.9493 62.8939 61.9588 62.4205C61.9493 61.9754 61.8026 61.5871 61.5185 61.2557C61.2438 60.9148 60.7893 60.6117 60.1548 60.3466C59.5204 60.072 58.6634 59.8163 57.5838 59.5795L54.6861 58.9545C52.1103 58.3958 50.0791 57.4631 48.5923 56.1562C47.1151 54.84 46.3812 53.0455 46.3906 50.7727C46.3812 48.9261 46.8736 47.3116 47.8679 45.929C48.8717 44.5369 50.259 43.4527 52.0298 42.6761C53.8101 41.8996 55.8509 41.5114 58.152 41.5114C60.5005 41.5114 62.5317 41.9044 64.2457 42.6903C65.9598 43.4763 67.2808 44.5843 68.2088 46.0142C69.1463 47.4347 69.6198 49.0966 69.6293 51H62.0724Z" fill="black"/>
</g>
<defs>
<clipPath id="clip0_6_13">
<rect width="80" height="80" fill="white"/>
</clipPath>
</defs>
</svg>
