<svg width="80" height="80" viewBox="0 0 80 80" fill="none" xmlns="http://www.w3.org/2000/svg">
<g clip-path="url(#clip0_6_2)">
<path d="M61.5 30.5955L56.6646 29.3229L61.5 30.5955ZM77.3441 35.5835C79.7833 36.8782 80.7111 39.905 79.4165 42.3441C78.1218 44.7833 75.095 45.7111 72.6559 44.4165L77.3441 35.5835ZM48 0.0687867C49.6836 0.0687867 52.758 -0.103281 55.2726 0.107207C57.9636 0.33247 61.361 1.03431 64.15 3.51782C67.0434 6.09419 68.4627 9.8356 68.7473 14.3926C69.0271 18.8731 68.252 24.5851 66.3354 31.868L56.6646 29.3229C58.4605 22.499 58.951 17.9667 58.7668 15.0159C58.5873 12.1417 57.8128 11.2648 57.5 10.9862C57.0828 10.6147 56.2614 10.225 54.4384 10.0724C52.4389 9.90498 50.7039 10.0688 48 10.0688V0.0687867ZM66.3354 31.868C66.5647 30.9967 66.037 30.4095 66.1795 30.5592C66.4705 30.865 67.2089 31.3934 68.6088 32.0554C69.935 32.6825 71.4391 33.2425 72.9909 33.8098C74.3397 34.3027 76.1148 34.9311 77.3441 35.5835L72.6559 44.4165C72.1977 44.1733 71.2706 43.828 69.5579 43.202C68.0483 42.6502 66.1318 41.9458 64.3338 41.0956C62.6097 40.2802 60.5203 39.1182 58.9357 37.4532C57.2025 35.6321 55.7513 32.7936 56.6646 29.3229L66.3354 31.868Z" fill="#2F909D"/>
<path d="M61.5 49.4045L56.6646 50.6771L61.5 49.4045ZM77.3441 44.4165C79.7833 43.1218 80.7111 40.095 79.4165 37.6559C78.1218 35.2167 75.095 34.2889 72.6559 35.5835L77.3441 44.4165ZM48 79.9312C49.6836 79.9312 52.758 80.1033 55.2726 79.8928C57.9636 79.6675 61.361 78.9657 64.15 76.4822C67.0434 73.9058 68.4627 70.1644 68.7473 65.6074C69.0271 61.1269 68.252 55.4149 66.3354 48.132L56.6646 50.6771C58.4605 57.501 58.951 62.0333 58.7668 64.9841C58.5873 67.8583 57.8128 68.7352 57.5 69.0138C57.0828 69.3853 56.2614 69.775 54.4384 69.9276C52.4389 70.095 50.7039 69.9312 48 69.9312V79.9312ZM66.3354 48.132C66.5647 49.0033 66.037 49.5905 66.1795 49.4408C66.4705 49.135 67.2088 48.6066 68.6088 47.9446C69.935 47.3175 71.4391 46.7575 72.9909 46.1902C74.3397 45.6973 76.1148 45.0689 77.3441 44.4165L72.6559 35.5835C72.1977 35.8267 71.2706 36.172 69.5579 36.798C68.0483 37.3498 66.1318 38.0542 64.3338 38.9044C62.6097 39.7198 60.5203 40.8818 58.9357 42.5468C57.2025 44.3679 55.7513 47.2064 56.6646 50.6771L66.3354 48.132Z" fill="#2F909D"/>
<path d="M18.5 30.5955L23.3354 29.3229L18.5 30.5955ZM2.65588 35.5835C0.216739 36.8782 -0.71108 39.905 0.583541 42.3441C1.87816 44.7833 4.90497 45.7111 7.34412 44.4165L2.65588 35.5835ZM32 0.0687867C30.3164 0.0687867 27.242 -0.103281 24.7274 0.107207C22.0364 0.33247 18.639 1.03431 15.85 3.51782C12.9566 6.09419 11.5373 9.8356 11.2527 14.3926C10.9729 18.8731 11.748 24.5851 13.6646 31.868L23.3354 29.3229C21.5395 22.499 21.049 17.9667 21.2332 15.0159C21.4127 12.1417 22.1872 11.2648 22.5 10.9862C22.9172 10.6147 23.7386 10.225 25.5616 10.0724C27.5611 9.90498 29.2961 10.0688 32 10.0688V0.0687867ZM13.6646 31.868C13.4353 30.9967 13.963 30.4095 13.8205 30.5592C13.5295 30.865 12.7911 31.3934 11.3912 32.0554C10.065 32.6825 8.56095 33.2425 7.0091 33.8098C5.66032 34.3027 3.88517 34.9311 2.65588 35.5835L7.34412 44.4165C7.80233 44.1733 8.72944 43.828 10.4421 43.202C11.9517 42.6502 13.8682 41.9458 15.6662 41.0956C17.3903 40.2802 19.4797 39.1182 21.0643 37.4532C22.7975 35.6321 24.2487 32.7936 23.3354 29.3229L13.6646 31.868Z" fill="#2F909D"/>
<path d="M18.5 49.4045L23.3354 50.6771L18.5 49.4045ZM2.65588 44.4165C0.216739 43.1218 -0.71108 40.095 0.583541 37.6559C1.87816 35.2167 4.90497 34.2889 7.34412 35.5835L2.65588 44.4165ZM32 79.9312C30.3164 79.9312 27.242 80.1033 24.7274 79.8928C22.0364 79.6675 18.639 78.9657 15.85 76.4822C12.9566 73.9058 11.5373 70.1644 11.2527 65.6074C10.9729 61.1269 11.748 55.4149 13.6646 48.132L23.3354 50.6771C21.5395 57.501 21.049 62.0333 21.2332 64.9841C21.4127 67.8583 22.1872 68.7352 22.5 69.0138C22.9172 69.3853 23.7386 69.775 25.5616 69.9276C27.5611 70.095 29.2961 69.9312 32 69.9312V79.9312ZM13.6646 48.132C13.4353 49.0033 13.963 49.5905 13.8205 49.4408C13.5295 49.135 12.7912 48.6066 11.3912 47.9446C10.065 47.3175 8.56095 46.7575 7.0091 46.1902C5.66032 45.6973 3.88517 45.0689 2.65588 44.4165L7.34412 35.5835C7.80233 35.8267 8.72944 36.172 10.4421 36.798C11.9517 37.3498 13.8682 38.0542 15.6662 38.9044C17.3903 39.7198 19.4797 40.8818 21.0643 42.5468C22.7975 44.3679 24.2487 47.2064 23.3354 50.6771L13.6646 48.132Z" fill="#2F909D"/>
</g>
<defs>
<clipPath id="clip0_6_2">
<rect width="80" height="80" fill="white"/>
</clipPath>
</defs>
</svg>
