<svg width="80" height="80" viewBox="0 0 80 80" fill="none" xmlns="http://www.w3.org/2000/svg">
<g clip-path="url(#clip0_6_7)">
<path d="M40.2875 4.76001C20.7425 4.76001 4.83499 20.675 4.83499 40.2125C4.83499 59.75 20.75 75.665 40.2875 75.665C59.825 75.665 75.74 59.75 75.74 40.2125C75.74 20.675 59.825 4.76001 40.2875 4.76001ZM40.235 7.91001C40.8412 7.92571 41.4172 8.17837 41.8404 8.61411C42.2635 9.04984 42.5002 9.63418 42.5 10.2425C42.5 10.8611 42.2542 11.4544 41.8168 11.8918C41.3794 12.3293 40.7861 12.575 40.1675 12.575C39.5489 12.575 38.9556 12.3293 38.5182 11.8918C38.0807 11.4544 37.835 10.8611 37.835 10.2425C37.8349 9.93044 37.8974 9.62151 38.0188 9.33403C38.1402 9.04655 38.3181 8.78635 38.5419 8.56885C38.7656 8.35135 39.0308 8.18097 39.3216 8.06781C39.6125 7.95464 39.9231 7.90098 40.235 7.91001ZM45.575 11.75C49.6697 12.517 53.5484 14.1661 56.9417 16.5828C60.335 18.9996 63.1615 22.126 65.225 25.745L62.4725 31.955C62 33.0275 62.4875 34.2875 63.5525 34.7675L68.8475 37.115C69.0117 38.7701 69.0318 40.4364 68.9075 42.095H65.96C65.6675 42.095 65.5475 42.29 65.5475 42.575V43.925C65.5475 47.105 63.755 47.8025 62.18 47.975C60.68 48.1475 59.0225 47.345 58.8125 46.43C57.9275 41.4575 56.4575 40.4 54.1325 38.5625C57.02 36.7325 60.02 34.025 60.02 30.41C60.02 26.5025 57.3425 24.0425 55.52 22.835C52.955 21.1475 50.12 20.81 49.355 20.81H18.905C23.1155 16.1063 28.7593 12.922 34.9625 11.75L38.555 15.515C39.365 16.3625 40.7075 16.4 41.555 15.5825L45.575 11.75ZM12.425 29.015C13.0318 29.0326 13.6079 29.2861 14.0309 29.7216C14.4538 30.1571 14.6902 30.7404 14.69 31.3475C14.69 31.9661 14.4442 32.5594 14.0068 32.9968C13.5694 33.4343 12.9761 33.68 12.3575 33.68C11.7389 33.68 11.1456 33.4343 10.7082 32.9968C10.2707 32.5594 10.025 31.9661 10.025 31.3475C10.0249 31.0354 10.0874 30.7265 10.2088 30.439C10.3302 30.1515 10.5081 29.8914 10.7319 29.6739C10.9556 29.4564 11.2208 29.286 11.5116 29.1728C11.8025 29.0596 12.1131 29.006 12.425 29.015ZM68.0375 29.12C68.6443 29.1376 69.2204 29.3911 69.6434 29.8266C70.0663 30.2621 70.3027 30.8454 70.3025 31.4525C70.3025 32.0711 70.0567 32.6644 69.6193 33.1018C69.1819 33.5393 68.5886 33.785 67.97 33.785C67.3514 33.785 66.7581 33.5393 66.3207 33.1018C65.8832 32.6644 65.6375 32.0711 65.6375 31.4525C65.6374 31.1404 65.6999 30.8315 65.8213 30.544C65.9427 30.2565 66.1206 29.9964 66.3444 29.7789C66.5681 29.5614 66.8333 29.391 67.1241 29.2778C67.415 29.1646 67.7256 29.111 68.0375 29.12ZM16.82 29.495H20.885V47.825H12.68C11.6667 44.2666 11.3509 40.5458 11.75 36.8675L16.775 34.6325C17.8475 34.1525 18.335 32.9 17.855 31.8275L16.82 29.495ZM33.785 29.69H43.4675C43.97 29.69 47 30.2675 47 32.54C47 34.4225 44.675 35.0975 42.7625 35.0975H33.7775L33.785 29.69ZM33.785 42.86H41.2025C41.8775 42.86 44.825 43.055 45.7625 46.82C46.055 47.975 46.7075 51.74 47.15 52.9475C47.5925 54.2975 49.385 56.9975 51.2975 56.9975H63.4025C62.5912 58.0839 61.704 59.1115 60.7475 60.0725L55.82 59.015C54.6725 58.7675 53.54 59.5025 53.2925 60.65L52.1225 66.11C48.3601 67.8143 44.2743 68.6866 40.144 68.6672C36.0136 68.6478 31.9361 67.7371 28.19 65.9975L27.02 60.5375C26.7725 59.39 25.6475 58.655 24.5 58.9025L19.6775 59.9375C18.7826 59.0144 17.9507 58.0322 17.1875 56.9975H40.64C40.9025 56.9975 41.0825 56.9525 41.0825 56.705V48.41C41.0825 48.17 40.9025 48.1175 40.64 48.1175H33.7775L33.785 42.86ZM22.9625 61.8575C23.5693 61.8751 24.1454 62.1286 24.5684 62.5641C24.9913 62.9996 25.2277 63.5829 25.2275 64.19C25.2275 64.8086 24.9817 65.4019 24.5443 65.8393C24.1069 66.2768 23.5136 66.5225 22.895 66.5225C22.2764 66.5225 21.6831 66.2768 21.2457 65.8393C20.8082 65.4019 20.5625 64.8086 20.5625 64.19C20.5624 63.8779 20.6249 63.569 20.7463 63.2815C20.8677 62.994 21.0456 62.7338 21.2694 62.5163C21.4931 62.2989 21.7583 62.1285 22.0491 62.0153C22.34 61.9021 22.6506 61.8485 22.9625 61.8575ZM57.5 61.9625C58.1068 61.9801 58.6829 62.2336 59.1059 62.6691C59.5288 63.1046 59.7652 63.6879 59.765 64.295C59.765 64.9136 59.5192 65.5069 59.0818 65.9443C58.6444 66.3818 58.0511 66.6275 57.4325 66.6275C56.8139 66.6275 56.2206 66.3818 55.7832 65.9443C55.3457 65.5069 55.1 64.9136 55.1 64.295C55.0999 63.9829 55.1624 63.674 55.2838 63.3865C55.4052 63.099 55.5831 62.8388 55.8069 62.6213C56.0306 62.4039 56.2958 62.2335 56.5866 62.1203C56.8775 62.0071 57.1881 61.9535 57.5 61.9625Z" fill="#AA5846"/>
<path fill-rule="evenodd" clip-rule="evenodd" d="M73.76 40.2125C73.76 49.0899 70.2335 57.6038 63.9561 63.8811C57.6788 70.1584 49.165 73.685 40.2875 73.685C31.4101 73.685 22.8962 70.1584 16.6189 63.8811C10.3416 57.6038 6.81501 49.0899 6.81501 40.2125C6.81501 31.335 10.3416 22.8212 16.6189 16.5439C22.8962 10.2665 31.4101 6.73999 40.2875 6.73999C49.165 6.73999 57.6788 10.2665 63.9561 16.5439C70.2335 22.8212 73.76 31.335 73.76 40.2125ZM73.13 36.98L78.35 40.2125L73.13 43.445L77.615 47.6375L71.87 49.79L75.455 54.7775L69.3875 55.7675L71.9375 61.3625L65.795 61.145L67.205 67.13L61.22 65.72L61.4375 71.8625L55.8425 69.3125L54.8525 75.38L49.865 71.795L47.7125 77.54L43.52 73.055L40.2875 78.275L37.055 73.055L32.8625 77.54L30.71 71.795L25.7225 75.38L24.7325 69.3125L19.1375 71.8625L19.355 65.72L13.37 67.13L14.78 61.145L8.63751 61.3625L11.1875 55.7675L5.12001 54.7775L8.70501 49.79L2.96001 47.6375L7.44501 43.445L2.22501 40.2125L7.44501 36.98L2.96001 32.7875L8.70501 30.635L5.12001 25.6475L11.1875 24.6575L8.63751 19.0625L14.78 19.28L13.37 13.295L19.355 14.705L19.1375 8.56249L24.7325 11.1125L25.7225 5.04499L30.71 8.62999L32.8625 2.88499L37.055 7.36999L40.2875 2.14999L43.52 7.36999L47.7125 2.88499L49.865 8.62999L54.8525 5.04499L55.8425 11.1125L61.4375 8.56249L61.22 14.705L67.205 13.295L65.795 19.28L71.9375 19.0625L69.3875 24.6575L75.455 25.6475L71.87 30.635L77.615 32.7875L73.13 36.98Z" fill="#AA5846" stroke="#AA5846" stroke-width="3" stroke-linecap="round" stroke-linejoin="round"/>
</g>
<defs>
<clipPath id="clip0_6_7">
<rect width="80" height="80" fill="white"/>
</clipPath>
</defs>
</svg>
