<svg width="80" height="80" viewBox="0 0 80 80" fill="none" xmlns="http://www.w3.org/2000/svg">
<g clip-path="url(#clip0_16_56)">
<g clip-path="url(#clip1_16_56)">
<path d="M73.1292 53.8209C73.2281 53.4251 73.3271 53.0292 73.4261 52.6334C77.7804 35.3148 67.1914 14.7304 49.1801 3.94345C57.0971 14.6315 60.5608 27.5957 57.493 38.8775C57.1961 39.8671 56.8992 40.8567 56.5033 41.8464C56.1075 41.5495 55.6127 41.2526 54.9199 40.9557C54.9199 40.9557 37.0076 29.8718 17.6108 10.3761C17.116 9.88125 28.0019 25.9133 40.2734 38.8775C34.4345 35.6117 18.3035 23.8351 8.01134 14.5325C9.29786 16.6108 10.7823 18.689 12.3657 20.5693C20.8766 31.4552 32.0594 44.8153 45.4195 55.1075C36.0179 60.8473 22.7569 61.3421 9.59476 55.1075C6.32897 53.623 3.26111 51.7427 0.391174 49.6645C5.93312 58.5712 14.5429 66.2903 25.033 70.8426C37.5024 76.1866 49.9718 75.8897 59.1753 70.9416C59.1753 70.9416 59.2743 70.9416 59.2743 70.8426C59.6702 70.6447 60.066 70.3478 60.4619 70.1499C64.9152 67.8737 73.624 65.5976 78.3742 74.7022C79.7597 76.7804 82.2338 64.9048 73.1292 53.8209Z" fill="#F05138"/>
</g>
</g>
<defs>
<clipPath id="clip0_16_56">
<rect width="80" height="80" fill="white"/>
</clipPath>
<clipPath id="clip1_16_56">
<rect width="105" height="105" fill="white" transform="translate(-10 -11)"/>
</clipPath>
</defs>
</svg>
