<svg width="80" height="80" viewBox="0 0 80 80" fill="none" xmlns="http://www.w3.org/2000/svg">
<g clip-path="url(#clip0_13_17)">
<mask id="mask0_13_17" style="mask-type:luminance" maskUnits="userSpaceOnUse" x="0" y="17" width="80" height="46">
<path d="M0 17H80V62.1636H0V17Z" fill="white"/>
</mask>
<g mask="url(#mask0_13_17)">
<path fill-rule="evenodd" clip-rule="evenodd" d="M40 17C29.3333 17 22.6667 22.0182 20 32.0545C24 27.0364 28.6667 25.1545 34 26.4091C37.043 27.1242 39.2178 29.2025 41.6252 31.5011C45.5467 35.2467 50.0859 39.5818 60 39.5818C70.6667 39.5818 77.3333 34.5636 80 24.5273C76 29.5455 71.3333 31.4273 66 30.1727C62.957 29.4576 60.7822 27.3793 58.3748 25.0807C54.4533 21.3352 49.9141 17 40 17ZM20 39.5818C9.33333 39.5818 2.66667 44.6 0 54.6364C4 49.6182 8.66667 47.7364 14 48.9909C17.043 49.7074 19.2178 51.7844 21.6252 54.083C25.5467 57.8285 30.0859 62.1636 40 62.1636C50.6667 62.1636 57.3333 57.1455 60 47.1091C56 52.1273 51.3333 54.0091 46 52.7545C42.957 52.0395 40.7822 49.9611 38.3748 47.6625C34.4533 43.917 29.9141 39.5818 20 39.5818Z" fill="#38BDF8"/>
</g>
</g>
<defs>
<clipPath id="clip0_13_17">
<rect width="80" height="46" fill="white" transform="translate(0 17)"/>
</clipPath>
</defs>
</svg>
