<svg width="80" height="80" viewBox="0 0 80 80" fill="none" xmlns="http://www.w3.org/2000/svg">
<g clip-path="url(#clip0_13_51)">
<path d="M79 39.5081C79 34.2177 72.5292 29.2039 62.6082 26.0948C64.8977 15.7417 63.8801 7.5049 59.3967 4.86781C58.3632 4.24923 57.1549 3.95622 55.8353 3.95622V7.58629C56.5666 7.58629 57.1549 7.7328 57.6478 8.00953C59.81 9.27924 60.7481 14.1139 60.0167 20.3322C59.8418 21.8624 59.5556 23.474 59.2059 25.1181C56.0897 24.3367 52.6873 23.7344 49.1101 23.3437C46.9637 20.3322 44.7379 17.5975 42.4961 15.2046C47.6792 10.2722 52.5442 7.57001 55.8512 7.57001V3.93994C51.479 3.93994 45.7554 7.1305 39.9682 12.6651C34.181 7.16306 28.4574 4.00506 24.0852 4.00506V7.63513C27.3763 7.63513 32.2572 10.3211 37.4403 15.2208C35.2144 17.6138 32.9886 20.3322 30.874 23.3437C27.2809 23.7344 23.8785 24.3367 20.7623 25.1344C20.3967 23.5065 20.1264 21.9275 19.9356 20.4136C19.1883 14.1953 20.1105 9.36063 22.2568 8.07464C22.7338 7.78163 23.3539 7.65141 24.0852 7.65141V4.02133C22.7497 4.02133 21.5414 4.31434 20.492 4.93292C16.0245 7.57001 15.0228 15.7906 17.3282 26.1111C7.43905 29.2365 1 34.234 1 39.5081C1 44.7986 7.47085 49.8123 17.3918 52.9215C15.1023 63.2745 16.1199 71.5114 20.6033 74.1485C21.6368 74.767 22.8451 75.0601 24.1806 75.0601C28.5528 75.0601 34.2764 71.8695 40.0636 66.3349C45.8508 71.8369 51.5744 74.9949 55.9466 74.9949C57.2821 74.9949 58.4904 74.7019 59.5398 74.0834C64.0073 71.4463 65.009 63.2257 62.7036 52.9052C72.5609 49.7961 79 44.7823 79 39.5081ZM58.2996 28.6505C57.7114 30.7504 56.98 32.9154 56.1533 35.0804C55.5014 33.7782 54.8178 32.4759 54.0705 31.1736C53.3392 29.8714 52.5601 28.6016 51.7811 27.3645C54.0387 27.7063 56.2169 28.1296 58.2996 28.6505ZM51.0179 45.9869C49.7778 48.1845 48.5059 50.2681 47.1863 52.2053C44.8174 52.4169 42.4166 52.5308 40 52.5308C37.5993 52.5308 35.1985 52.4169 32.8455 52.2215C31.5259 50.2844 30.2381 48.2171 28.998 46.0358C27.7896 43.9033 26.6926 41.7383 25.691 39.557C26.6767 37.3757 27.7896 35.1944 28.9821 33.0619C30.2222 30.8643 31.4941 28.7807 32.8137 26.8436C35.1826 26.632 37.5834 26.518 40 26.518C42.4007 26.518 44.8015 26.632 47.1545 26.8273C48.4741 28.7644 49.7619 30.8318 51.002 33.0131C52.2104 35.1455 53.3074 37.3106 54.309 39.4919C53.3074 41.6732 52.2104 43.8545 51.0179 45.9869ZM56.1533 43.8707C57.0118 46.052 57.7432 48.2333 58.3473 50.3495C56.2646 50.8704 54.0705 51.3099 51.797 51.6518C52.576 50.3984 53.3551 49.1124 54.0864 47.7938C54.8178 46.4916 55.5014 45.173 56.1533 43.8707ZM40.0318 61.2397C38.5532 59.677 37.0746 57.9352 35.6119 56.0307C37.0428 56.0958 38.5055 56.1446 39.9841 56.1446C41.4786 56.1446 42.9572 56.1121 44.404 56.0307C42.9731 57.9352 41.4945 59.677 40.0318 61.2397ZM28.203 51.6518C25.9454 51.3099 23.7672 50.8867 21.6845 50.3658C22.2727 48.2659 23.0041 46.1009 23.8308 43.9359C24.4827 45.2381 25.1663 46.5404 25.9136 47.8427C26.6608 49.1449 27.424 50.4146 28.203 51.6518ZM39.9523 17.7765C41.4309 19.3393 42.9095 21.081 44.3722 22.9856C42.9413 22.9205 41.4786 22.8717 40 22.8717C38.5055 22.8717 37.0269 22.9042 35.5801 22.9856C37.011 21.081 38.4896 19.3393 39.9523 17.7765ZM28.1871 27.3645C27.4081 28.6179 26.629 29.9039 25.8977 31.2225C25.1663 32.5247 24.4827 33.827 23.8308 35.1293C22.9723 32.948 22.2409 30.7667 21.6368 28.6505C23.7195 28.1459 25.9136 27.7063 28.1871 27.3645ZM13.7986 47.745C8.17041 45.287 4.52956 42.0638 4.52956 39.5081C4.52956 36.9524 8.17041 33.713 13.7986 31.2713C15.1659 30.669 16.6604 30.1318 18.2026 29.6272C19.1088 32.8177 20.3013 36.1385 21.7799 39.5407C20.3172 42.9266 19.1406 46.2311 18.2503 49.4054C16.6763 48.9007 15.1818 48.3473 13.7986 47.745ZM22.3522 71.0068C20.19 69.737 19.2519 64.9024 19.9833 58.684C20.1582 57.1539 20.4444 55.5423 20.7941 53.8982C23.9103 54.6796 27.3127 55.2819 30.8899 55.6725C33.0363 58.684 35.2621 61.4188 37.5039 63.8117C32.3208 68.7441 27.4558 71.4463 24.1488 71.4463C23.4333 71.43 22.8292 71.2835 22.3522 71.0068ZM60.0644 58.6026C60.8117 64.821 59.8895 69.6556 57.7432 70.9416C57.2662 71.2346 56.6461 71.3649 55.9148 71.3649C52.6237 71.3649 47.7428 68.6789 42.5597 63.7792C44.7856 61.3862 47.0114 58.6678 49.126 55.6563C52.7191 55.2656 56.1215 54.6633 59.2377 53.8656C59.6033 55.5098 59.8895 57.0888 60.0644 58.6026ZM66.1855 47.745C64.8182 48.3473 63.3237 48.8845 61.7815 49.3891C60.8753 46.1985 59.6828 42.8778 58.2042 39.4756C59.6669 36.0897 60.8435 32.7852 61.7338 29.6109C63.3078 30.1155 64.8023 30.669 66.2014 31.2713C71.8296 33.7293 75.4704 36.9524 75.4704 39.5081C75.4545 42.0638 71.8137 45.3032 66.1855 47.745Z" fill="#0574C4"/>
<path d="M39.9841 46.9474C43.9969 46.9474 47.2499 43.6167 47.2499 39.5081C47.2499 35.3996 43.9969 32.0689 39.9841 32.0689C35.9713 32.0689 32.7183 35.3996 32.7183 39.5081C32.7183 43.6167 35.9713 46.9474 39.9841 46.9474Z" fill="#0574C4"/>
</g>
<defs>
<clipPath id="clip0_13_51">
<rect width="80" height="80" fill="white"/>
</clipPath>
</defs>
</svg>
