<svg width="80" height="80" viewBox="0 0 80 80" fill="none" xmlns="http://www.w3.org/2000/svg">
<g clip-path="url(#clip0_6_16)">
<rect width="80" height="80" rx="16" fill="#0574C4"/>
<path d="M18.0795 48.2727V41.9091H43.3636V48.2727H34.6136V71H26.8295V48.2727H18.0795ZM62.0178 51C61.942 50.053 61.5869 49.3144 60.9524 48.7841C60.3274 48.2538 59.3757 47.9886 58.0973 47.9886C57.2829 47.9886 56.6153 48.0881 56.0945 48.2869C55.5831 48.4763 55.2043 48.7367 54.9581 49.0682C54.7119 49.3996 54.584 49.7784 54.5746 50.2045C54.5556 50.5549 54.6172 50.8722 54.7592 51.1562C54.9107 51.4309 55.1475 51.6818 55.4695 51.9091C55.7914 52.1269 56.2034 52.3258 56.7053 52.5057C57.2072 52.6856 57.8037 52.8466 58.495 52.9886L60.8814 53.5C62.4912 53.8409 63.8691 54.2907 65.0149 54.8494C66.1607 55.4081 67.0982 56.0663 67.8274 56.8239C68.5566 57.572 69.0916 58.4148 69.4325 59.3523C69.7829 60.2898 69.9628 61.3125 69.9723 62.4205C69.9628 64.3333 69.4846 65.9527 68.5376 67.2784C67.5907 68.6042 66.2365 69.6127 64.4751 70.304C62.7232 70.9953 60.6162 71.3409 58.1541 71.3409C55.6257 71.3409 53.4193 70.9669 51.5348 70.2188C49.6598 69.4706 48.2015 68.3201 47.1598 66.767C46.1276 65.2045 45.6068 63.2064 45.5973 60.7727H53.0973C53.1446 61.6629 53.3672 62.411 53.7649 63.017C54.1626 63.6231 54.7214 64.0824 55.4411 64.3949C56.1702 64.7074 57.0367 64.8636 58.0405 64.8636C58.8833 64.8636 59.5888 64.7595 60.157 64.5511C60.7251 64.3428 61.156 64.054 61.4496 63.6847C61.7431 63.3153 61.8946 62.8939 61.9041 62.4205C61.8946 61.9754 61.7479 61.5871 61.4638 61.2557C61.1892 60.9148 60.7346 60.6117 60.1001 60.3466C59.4657 60.072 58.6087 59.8163 57.5291 59.5795L54.6314 58.9545C52.0556 58.3958 50.0244 57.4631 48.5376 56.1562C47.0604 54.84 46.3265 53.0455 46.3359 50.7727C46.3265 48.9261 46.8189 47.3116 47.8132 45.929C48.817 44.5369 50.2043 43.4527 51.9751 42.6761C53.7554 41.8996 55.7962 41.5114 58.0973 41.5114C60.4458 41.5114 62.477 41.9044 64.1911 42.6903C65.9051 43.4763 67.2261 44.5843 68.1541 46.0142C69.0916 47.4347 69.5651 49.0966 69.5746 51H62.0178Z" fill="white"/>
</g>
<defs>
<clipPath id="clip0_6_16">
<rect width="80" height="80" fill="white"/>
</clipPath>
</defs>
</svg>
